<svg xmlns="http://www.w3.org/2000/svg" version="1.1" xmlns:xlink="http://www.w3.org/1999/xlink" xmlns:svgjs="http://svgjs.dev/svgjs" width="1440" height="560" preserveAspectRatio="none" viewBox="0 0 1440 560"><g mask="url(&quot;#SvgjsMask1001&quot;)" fill="none"><rect width="1440" height="560" x="0" y="0" fill="rgba(24, 106, 59, 1)"></rect><path d="M0,404.985C79.565,427.987,177.939,428.959,241.721,376.124C305.528,323.268,295.381,224.387,315.148,143.923C331.074,79.093,347.076,16.956,346.354,-49.798C345.536,-125.422,356.237,-208.838,310.682,-269.207C264.544,-330.348,181.772,-347.361,107.546,-366.266C35.562,-384.6,-37.399,-389.414,-110.548,-376.492C-190.67,-362.338,-281.697,-351.691,-332.902,-288.461C-383.906,-225.479,-363.667,-134.105,-372.112,-53.502C-380.19,23.598,-424.127,109.501,-381.37,174.166C-337.98,239.788,-233.276,217.526,-165.973,258.26C-101.493,297.286,-72.405,384.053,0,404.985" fill="#13552f"></path><path d="M1440 1253.982C1568.093 1261.65 1678.664 1166.626 1776.469 1083.556 1865.124 1008.2570000000001 1919.417 906.738 1971.367 802.667 2025.1109999999999 695.001 2112.696 584.274 2084.0389999999998 467.401 2055.417 350.66999999999996 1909.955 311.772 1829.18 222.77300000000002 1750.998 136.63099999999997 1721.547 6.84699999999998 1617.973-46.11900000000003 1507.682-102.519 1374.874-101.14200000000005 1254.724-70.99199999999996 1131.754-40.134000000000015 1022.2850000000001 30.317000000000007 937.548 124.62299999999999 851.82 220.03199999999998 785.616 336.496 773.82 464.218 762.298 588.975 808.132 711.8199999999999 873.445 818.7370000000001 933.884 917.674 1036.5230000000001 974.133 1128.462 1044.763 1229.71 1122.545 1312.552 1246.3519999999999 1440 1253.982" fill="#1d7f47"></path></g><defs><mask id="SvgjsMask1001"><rect width="1440" height="560" fill="#ffffff"></rect></mask></defs></svg>